# WaveFront *.obj file (generated by Autodesk ATF)

mtllib Wall.mtl

g Solid1

v 0.000000 -0.100000 -0.350000
v 0.000000 -0.100000 0.050000
v 0.000000 1.000000 -0.350000
v 0.000000 1.000000 0.050000
v 0.100000 1.100000 -0.250000
v 0.100000 1.100000 -0.050000
v 0.400000 1.100000 -0.250000
v 0.400000 1.100000 -0.050000
v 0.500000 -0.100000 -0.350000
v 0.500000 -0.100000 0.050000
v 0.500000 0.000000 -0.300000
v 0.500000 0.000000 0.000000
v 0.500000 0.900000 -0.300000
v 0.500000 0.900000 0.000000
v 0.500000 1.000000 -0.350000
v 0.500000 1.000000 0.050000
v 1.500000 -0.100000 -0.350000
v 1.500000 -0.100000 0.050000
v 1.500000 0.000000 -0.300000
v 1.500000 0.000000 0.000000
v 1.500000 0.900000 -0.300000
v 1.500000 0.900000 0.000000
v 1.500000 1.000000 -0.350000
v 1.500000 1.000000 0.050000
v 1.600000 1.100000 -0.250000
v 1.600000 1.100000 -0.050000
v 1.900000 1.100000 -0.250000
v 1.900000 1.100000 -0.050000
v 2.000000 -0.100000 -0.350000
v 2.000000 -0.100000 0.050000
v 2.000000 1.000000 -0.350000
v 2.000000 1.000000 0.050000
vt -0.020000 -0.025000 0.000000
vt 0.020000 -0.025000 0.000000
vt 0.020000 0.025000 0.000000
vt -0.020000 0.025000 0.000000
vt 0.027500 -0.007071 0.000000
vt 0.017500 0.007071 0.000000
vt -0.002500 0.007071 0.000000
vt -0.012500 -0.007071 0.000000
vt -0.015000 0.007071 0.000000
vt -0.025000 -0.007071 0.000000
vt 0.025000 -0.007071 0.000000
vt 0.015000 0.007071 0.000000
vt 0.035000 0.100000 0.000000
vt -0.005000 0.100000 0.000000
vt -0.005000 -0.010000 0.000000
vt 0.035000 -0.010000 0.000000
vt 0.020000 0.025000 0.000000
vt -0.020000 0.025000 0.000000
vt -0.020000 -0.025000 0.000000
vt 0.020000 -0.025000 0.000000
vt -0.015000 0.007071 0.000000
vt -0.025000 -0.007071 0.000000
vt 0.025000 -0.007071 0.000000
vt 0.015000 0.007071 0.000000
vt 0.025000 0.050000 0.000000
vt -0.025000 0.050000 0.000000
vt -0.025000 -0.060000 0.000000
vt 0.025000 -0.060000 0.000000
vt 0.035000 0.100000 0.000000
vt -0.005000 0.100000 0.000000
vt -0.005000 -0.010000 0.000000
vt 0.035000 -0.010000 0.000000
vt 0.027500 -0.007071 0.000000
vt 0.017500 0.007071 0.000000
vt -0.002500 0.007071 0.000000
vt -0.012500 -0.007071 0.000000
vt 0.030000 0.040000 0.000000
vt 0.030000 -0.050000 0.000000
vt 0.000000 -0.050000 0.000000
vt 0.000000 0.040000 0.000000
vt 0.035000 0.050000 0.000000
vt -0.005000 0.050000 0.000000
vt -0.005000 -0.060000 0.000000
vt 0.035000 -0.060000 0.000000
vt 0.035000 0.050000 0.000000
vt -0.005000 0.050000 0.000000
vt -0.005000 -0.060000 0.000000
vt 0.035000 -0.060000 0.000000
vt 0.000000 0.040000 0.000000
vt 0.030000 0.040000 0.000000
vt 0.030000 -0.050000 0.000000
vt 0.000000 -0.050000 0.000000
vt 0.025000 -0.007071 0.000000
vt 0.015000 0.007071 0.000000
vt -0.015000 0.007071 0.000000
vt -0.025000 -0.007071 0.000000
vt 0.025000 0.050000 0.000000
vt -0.025000 0.050000 0.000000
vt -0.025000 -0.060000 0.000000
vt 0.025000 -0.060000 0.000000
vt -0.015000 -0.050000 0.000000
vt 0.015000 -0.050000 0.000000
vt 0.015000 0.050000 0.000000
vt -0.015000 0.050000 0.000000
vt -0.010000 -0.015000 0.000000
vt 0.010000 -0.015000 0.000000
vt 0.010000 0.015000 0.000000
vt -0.010000 0.015000 0.000000
vt 0.025000 0.050000 0.000000
vt -0.025000 0.050000 0.000000
vt -0.025000 -0.060000 0.000000
vt 0.025000 -0.060000 0.000000
vt 0.027500 -0.007071 0.000000
vt 0.017500 0.007071 0.000000
vt -0.002500 0.007071 0.000000
vt -0.012500 -0.007071 0.000000
vt 0.025000 0.050000 0.000000
vt -0.025000 0.050000 0.000000
vt -0.025000 -0.060000 0.000000
vt 0.025000 -0.060000 0.000000
vt 0.150000 0.090000 0.000000
vt 0.050000 0.090000 0.000000
vt 0.050000 0.000000 0.000000
vt 0.150000 0.000000 0.000000
vt 0.150000 0.090000 0.000000
vt 0.050000 0.090000 0.000000
vt 0.050000 0.000000 0.000000
vt 0.150000 0.000000 0.000000
vt 0.027500 -0.007071 0.000000
vt 0.017500 0.007071 0.000000
vt -0.002500 0.007071 0.000000
vt -0.012500 -0.007071 0.000000
vt 0.025000 -0.007071 0.000000
vt 0.015000 0.007071 0.000000
vt -0.015000 0.007071 0.000000
vt -0.025000 -0.007071 0.000000
vt 0.015000 -0.050000 0.000000
vt 0.015000 0.050000 0.000000
vt -0.015000 0.050000 0.000000
vt -0.015000 -0.050000 0.000000
vt 0.010000 0.015000 0.000000
vt -0.010000 0.015000 0.000000
vt -0.010000 -0.015000 0.000000
vt 0.010000 -0.015000 0.000000
vn 0.000000 -0.100000 0.000000
vn 0.000000 -0.100000 0.000000
vn 0.000000 -0.100000 0.000000
vn 0.000000 -0.100000 0.000000
vn -0.070711 0.070711 0.000000
vn -0.070711 0.070711 0.000000
vn -0.070711 0.070711 0.000000
vn -0.070711 0.070711 0.000000
vn 0.000000 0.070711 0.070711
vn 0.000000 0.070711 0.070711
vn 0.000000 0.070711 0.070711
vn 0.000000 0.070711 0.070711
vn 0.100000 0.000000 0.000000
vn 0.100000 0.000000 0.000000
vn 0.100000 0.000000 0.000000
vn 0.100000 0.000000 0.000000
vn 0.000000 -0.100000 0.000000
vn 0.000000 -0.100000 0.000000
vn 0.000000 -0.100000 0.000000
vn 0.000000 -0.100000 0.000000
vn 0.000000 0.070711 -0.070711
vn 0.000000 0.070711 -0.070711
vn 0.000000 0.070711 -0.070711
vn 0.000000 0.070711 -0.070711
vn 0.000000 0.000000 -0.100000
vn 0.000000 0.000000 -0.100000
vn 0.000000 0.000000 -0.100000
vn 0.000000 0.000000 -0.100000
vn -0.100000 0.000000 0.000000
vn -0.100000 0.000000 0.000000
vn -0.100000 0.000000 0.000000
vn -0.100000 0.000000 0.000000
vn 0.070711 0.070711 0.000000
vn 0.070711 0.070711 0.000000
vn 0.070711 0.070711 0.000000
vn 0.070711 0.070711 0.000000
vn -0.100000 0.000000 0.000000
vn -0.100000 0.000000 0.000000
vn -0.100000 0.000000 0.000000
vn -0.100000 0.000000 0.000000
vn -0.100000 0.000000 0.000000
vn -0.100000 0.000000 0.000000
vn -0.100000 0.000000 0.000000
vn -0.100000 0.000000 0.000000
vn 0.100000 0.000000 0.000000
vn 0.100000 0.000000 0.000000
vn 0.100000 0.000000 0.000000
vn 0.100000 0.000000 0.000000
vn 0.100000 0.000000 0.000000
vn 0.100000 0.000000 0.000000
vn 0.100000 0.000000 0.000000
vn 0.100000 0.000000 0.000000
vn 0.000000 0.070711 -0.070711
vn 0.000000 0.070711 -0.070711
vn 0.000000 0.070711 -0.070711
vn 0.000000 0.070711 -0.070711
vn 0.000000 0.000000 0.100000
vn 0.000000 0.000000 0.100000
vn 0.000000 0.000000 0.100000
vn 0.000000 0.000000 0.100000
vn 0.000000 -0.100000 0.000000
vn 0.000000 -0.100000 0.000000
vn 0.000000 -0.100000 0.000000
vn 0.000000 -0.100000 0.000000
vn 0.000000 0.100000 0.000000
vn 0.000000 0.100000 0.000000
vn 0.000000 0.100000 0.000000
vn 0.000000 0.100000 0.000000
vn 0.000000 0.000000 -0.100000
vn 0.000000 0.000000 -0.100000
vn 0.000000 0.000000 -0.100000
vn 0.000000 0.000000 -0.100000
vn 0.070711 0.070711 0.000000
vn 0.070711 0.070711 0.000000
vn 0.070711 0.070711 0.000000
vn 0.070711 0.070711 0.000000
vn 0.000000 0.000000 0.100000
vn 0.000000 0.000000 0.100000
vn 0.000000 0.000000 0.100000
vn 0.000000 0.000000 0.100000
vn 0.000000 0.000000 -0.100000
vn 0.000000 0.000000 -0.100000
vn 0.000000 0.000000 -0.100000
vn 0.000000 0.000000 -0.100000
vn 0.000000 0.000000 0.100000
vn 0.000000 0.000000 0.100000
vn 0.000000 0.000000 0.100000
vn 0.000000 0.000000 0.100000
vn -0.070711 0.070711 0.000000
vn -0.070711 0.070711 0.000000
vn -0.070711 0.070711 0.000000
vn -0.070711 0.070711 0.000000
vn 0.000000 0.070711 0.070711
vn 0.000000 0.070711 0.070711
vn 0.000000 0.070711 0.070711
vn 0.000000 0.070711 0.070711
vn 0.000000 0.100000 0.000000
vn 0.000000 0.100000 0.000000
vn 0.000000 0.100000 0.000000
vn 0.000000 0.100000 0.000000
vn 0.000000 0.100000 0.000000
vn 0.000000 0.100000 0.000000
vn 0.000000 0.100000 0.000000
vn 0.000000 0.100000 0.000000
usemtl 191,191,191
f 2/1/1 1/2/2 10/4/4
f 10/4/4 1/2/2 9/3/3
f 26/6/6 25/7/7 24/5/5
f 24/5/5 25/7/7 23/8/8
f 24/10/10 32/11/11 26/9/9
f 26/9/9 32/11/11 28/12/12
f 31/13/13 32/14/14 29/16/16
f 29/16/16 32/14/14 30/15/15
f 29/17/17 30/18/18 17/20/20
f 17/20/20 30/18/18 18/19/19
f 15/22/22 3/23/23 7/21/21
f 7/21/21 3/23/23 5/24/24
f 23/25/25 31/26/26 17/28/28
f 17/28/28 31/26/26 29/27/27
f 4/29/29 3/30/30 2/32/32
f 2/32/32 3/30/30 1/31/31
f 7/34/34 8/35/35 15/33/33
f 15/33/33 8/35/35 16/36/36
f 20/38/38 18/44/44 22/37/37
f 22/37/37 18/44/44 24/41/41
f 22/37/37 24/41/41 23/42/42
f 20/38/38 19/39/39 18/44/44
f 18/44/44 19/39/39 17/43/43
f 17/43/43 19/39/39 21/40/40
f 17/43/43 21/40/40 23/42/42
f 23/42/42 21/40/40 22/37/37
f 9/48/48 15/45/45 13/50/50
f 13/50/50 15/45/45 16/46/46
f 13/50/50 16/46/46 14/49/49
f 14/49/49 16/46/46 10/47/47
f 14/49/49 10/47/47 12/52/52
f 12/52/52 10/47/47 9/48/48
f 12/52/52 9/48/48 11/51/51
f 11/51/51 9/48/48 13/50/50
f 25/54/54 27/55/55 23/53/53
f 23/53/53 27/55/55 31/56/56
f 32/57/57 24/58/58 30/60/60
f 30/60/60 24/58/58 18/59/59
f 12/61/61 11/62/62 20/64/64
f 20/64/64 11/62/62 19/63/63
f 25/65/65 26/66/66 27/68/68
f 27/68/68 26/66/66 28/67/67
f 3/69/69 15/70/70 1/72/72
f 1/72/72 15/70/70 9/71/71
f 27/74/74 28/75/75 31/73/73
f 31/73/73 28/75/75 32/76/76
f 16/77/77 4/78/78 10/80/80
f 10/80/80 4/78/78 2/79/79
f 13/81/81 21/82/82 11/84/84
f 11/84/84 21/82/82 19/83/83
f 22/85/85 14/86/86 20/88/88
f 20/88/88 14/86/86 12/87/87
f 6/90/90 5/91/91 4/89/89
f 4/89/89 5/91/91 3/92/92
f 8/94/94 6/95/95 16/93/93
f 16/93/93 6/95/95 4/96/96
f 22/98/98 21/99/99 14/97/97
f 14/97/97 21/99/99 13/100/100
f 8/101/101 7/102/102 6/104/104
f 6/104/104 7/102/102 5/103/103

# 32 vertices
# 104 texture params
# 104 normals
# 60 facets

# 1 groups
